<?xml version="1.0" encoding="iso-8859-1"?>
<!-- Generator: Adobe Illustrator 19.0.0, SVG Export Plug-In . SVG Version: 6.00 Build 0)  -->
<svg version="1.1" id="Capa_1" xmlns="http://www.w3.org/2000/svg" xmlns:xlink="http://www.w3.org/1999/xlink" x="0px" y="0px"
	 viewBox="0 0 512 512" style="enable-background:new 0 0 512 512;" xml:space="preserve">
<g>
	<g>
		<path d="M150.619,0L54.917,95.702V512h402.165V0H150.619z M146.165,25.961v65.287H80.878L146.165,25.961z M441.875,496.792
			L441.875,496.792H70.125V106.455h91.248V15.208h280.502V496.792z"/>
	</g>
</g>
<g>
	<g>
		<path d="M405.713,306.186v-85.164h-85.164v34.471h0h-23.718l-31.03-31.03v-23.718h91.247V120.65H159.345v80.095h91.248v23.718
			l-31.031,31.03h-23.718v-34.471h-85.164v85.164h85.164v-35.485h23.718l31.03,31.03v23.718h-91.248v80.095h197.703V325.45h-91.248
			v-23.718l31.031-31.03h23.718v35.485H405.713z M335.757,236.23h54.749v54.748h-54.749V236.23z M180.636,290.978h-54.749V236.23
			h54.749V290.978z M174.553,185.537v-49.679H341.84v49.679H174.553z M341.84,340.657v49.679H174.553v-49.679H341.84z
			 M258.197,287.829l-24.732-24.732l24.732-24.732l24.731,24.732L258.197,287.829z"/>
	</g>
</g>
<g>
	<g>
		<g>
			<polygon points="337.953,30.416 337.953,45.624 411.458,45.624 411.458,88.713 426.666,88.713 426.666,30.416 			"/>
			<rect x="411.458" y="103.921" width="15.208" height="15.208"/>
		</g>
	</g>
</g>
<g>
	<g>
		<g>
			<rect x="85.333" y="392.871" width="15.208" height="15.208"/>
			<polygon points="100.541,466.376 100.541,423.287 85.333,423.287 85.333,481.584 174.046,481.584 174.046,466.376 			"/>
		</g>
	</g>
</g>
<g>
	<g>
		<g>
			<rect x="250.593" y="450.661" width="15.208" height="15.208"/>
			<rect x="250.593" y="420.246" width="15.208" height="15.208"/>
		</g>
	</g>
</g>
<g>
	<g>
		<g>
			<rect x="250.593" y="58.297" width="15.208" height="15.208"/>
			<rect x="250.593" y="88.713" width="15.208" height="15.208"/>
			<rect x="250.593" y="27.881" width="15.208" height="15.208"/>
		</g>
	</g>
</g>
<g>
	<g>
		<g>
			<rect x="197.365" y="153.093" width="15.208" height="15.208"/>
			<rect x="283.543" y="153.093" width="35.485" height="15.208"/>
			<rect x="227.781" y="153.093" width="40.554" height="15.208"/>
		</g>
	</g>
</g>
<g>
	<g>
		<g>
			<rect x="197.365" y="357.893" width="60.832" height="15.208"/>
			<rect x="273.404" y="357.893" width="15.208" height="15.208"/>
			<rect x="303.82" y="357.893" width="15.208" height="15.208"/>
		</g>
	</g>
</g>
<g>
	<g>
		<g>
			<rect x="411.797" y="436.467" width="15.208" height="37.513"/>
			<rect x="411.797" y="405.038" width="15.208" height="16.222"/>
		</g>
	</g>
</g>
</svg>
