<svg  id="Infrastructure-SVG" version="1.1" xmlns="http://www.w3.org/2000/svg" xmlns:xlink="http://www.w3.org/1999/xlink" x="0px" y="0px"
   viewBox="0 0 310 350">
  <defs>
    <linearGradient id="Infrastructure-shadowGradient" gradientUnits="userSpaceOnUse" x1="32" y1="337.7053" x2="278" y2="337.7053">
      <stop  offset="0" style="stop-color:#005DFF;stop-opacity:0.15"/>
      <stop  offset="0.4364" style="stop-color:#0068FF;stop-opacity:8.453682e-02"/>
      <stop  offset="1" style="stop-color:#0072FF;stop-opacity:0"/>
    </linearGradient>
    <linearGradient id="Infrastructure-serverGradient" gradientUnits="userSpaceOnUse" x1="32" y1="249.7053" x2="278" y2="249.7053">
      <stop  offset="0" style="stop-color:#0072FF;stop-opacity:0.3"/>
      <stop  offset="0.1091" style="stop-color:#338EFF;stop-opacity:0.3764"/>
      <stop  offset="0.2384" style="stop-color:#69ACFF;stop-opacity:0.4669"/>
      <stop  offset="0.3693" style="stop-color:#97C5FF;stop-opacity:0.5585"/>
      <stop  offset="0.4993" style="stop-color:#BCDAFF;stop-opacity:0.6495"/>
      <stop  offset="0.628" style="stop-color:#D9EAFF;stop-opacity:0.7396"/>
      <stop  offset="0.7551" style="stop-color:#EEF6FF;stop-opacity:0.8286"/>
      <stop  offset="0.88" style="stop-color:#FBFDFF;stop-opacity:0.916"/>
      <stop  offset="1" style="stop-color:#FFFFFF"/>
    </linearGradient>
    <linearGradient id="Infrastructure-borderGradient" gradientUnits="userSpaceOnUse" x1="32" y1="2820.022" x2="278" y2="2820.022" gradientTransform="matrix(1 0 0 1 0 -2596)">
      <stop  offset="0" style="stop-color:#0053FF"/>
      <stop  offset="1" style="stop-color:#00DA88"/>
    </linearGradient>
  </defs>
<style type="text/css">
  .Infrastructure-shadow{fill:url(#Infrastructure-shadowGradient);}
  .Infrastucture-box{fill:none;stroke:#0072FF;stroke-width:2;stroke-linecap:round;stroke-miterlimit:10;stroke-dasharray:0,7.0744;}
  .Infrastucture-borderLine{fill:none;stroke:#0072FF;stroke-width:2;stroke-linecap:round;stroke-miterlimit:10;stroke-dasharray:0,7;}
  .Infrastructure-topBorder{fill:#0072FF;}
  .Infrastructure-border{fill:url(#Infrastructure-borderGradient);}
  .Infrastructure-server{fill:url(#Infrastructure-serverGradient);}
</style>
<g class="Infrastructure-lines" id="Infrastructure-bottomLines">
  <polyline class="Infrastucture-box" points="308.7,289 155,340.5 1,289	"/>
  <polyline class="Infrastucture-box" points="1,289 155,237.1 308.7,289	"/>
  <line class="Infrastucture-borderLine" x1="155" y1="238.8" x2="155" y2="1.1"/>
  <line class="Infrastucture-borderLine" x1="309" y1="289" x2="309" y2="53"/>
  <line class="Infrastucture-borderLine" x1="1" y1="289" x2="1" y2="53"/>
</g>
<g class="Server" id="panels">
	<polygon class="left-face" points="" />
</g>
<g class="Server" id="Server_4">
  <polygon class="Infrastructure-topBorder" points="32,253.8 155,212.6 278,253.8 278,250 155,208.6 32,249.8"/>
  <polygon class="Infrastructure-border" points="278,249.8 155,291 32,249.8 32,253.8 155,295 278,253.8"/>
  <polygon class="Infrastructure-server" points="278,249.8 155,291 32,249.8 155,208.5	"/>
</g>
<g class="Server" id="Server_3">
  <polygon class="Infrastructure-topBorder" points="32,205.5 155,164.3 278,205.4 278,201.7 155,160.3 32,201.5"/>
  <polygon class="Infrastructure-border" points="278,201.4 155,242.6 32,201.4 32,205.4 155,246.6 278,205.4"/>
  <polygon class="Infrastructure-server" points="278,201.4 155,242.6 32,201.4 155,160.1	"/>
</g>
<g class="Server" id="Server_2">
  <polygon class="Infrastructure-topBorder" points="32,157.1 155,115.9 278,157.1 278,153.3 155,111.9 32,153.1"/>
  <polygon class="Infrastructure-border" points="278,153.1 155,194.3 32,153.1 32,157.1 155,198.3 278,157.1"/>
  <polygon class="Infrastructure-server" points="278,153.1 155,194.3 32,153.1 155,111.8	"/>
</g>
<g class="Server" id="Server_1">
  <polygon class="Infrastructure-topBorder" points="32,108.8 155,67.6 278,108.8 278,105 155,63.6 32,104.8"/>
  <polygon class="Infrastructure-border" points="278,104.8 155,146 32,104.8 32,108.8 155,150 278,108.8"/>
  <polygon class="Infrastructure-server" points="278,104.8 155,146 32,104.8 155,63.5	"/>
</g>
<g class="Infrastructure-lines" id="Infrastructure-topLines">
  <line class="Infrastucture-borderLine" x1="155" y1="340.7" x2="155" y2="104.5"/>
  <polyline class="Infrastucture-box" points="1,53 155,1.1 309,53"/>
  <polyline class="Infrastucture-box" points="309,53 155,104.5 1,53"/>
</g>
</svg>